<?xml version="1.0" encoding="iso-8859-1"?>
<!-- Uploaded to: SVG Repo, www.svgrepo.com, Generator: SVG Repo Mixer Tools -->
<svg height="800px" width="800px" version="1.1" id="Layer_1" xmlns="http://www.w3.org/2000/svg" xmlns:xlink="http://www.w3.org/1999/xlink" 
	 viewBox="0 0 512.002 512.002" xml:space="preserve">
<path style="fill:#FF5E8A;" d="M330.148,199.603c-41.544,0-74.137,46.321-74.137,46.321s-30.745-46.321-74.156-46.321
	c-42.224,0-76.705,34.826-78.962,76.992c-1.271,23.821,6.408,41.951,17.227,58.371c21.621,32.804,116.144,111.782,136.028,111.782
	c20.296,0,113.978-78.689,135.741-111.782c10.842-16.495,18.5-34.548,17.224-58.371
	C406.855,234.429,372.374,199.603,330.148,199.603"/>
<g>
	<path style="fill:#BBDCE3;" d="M120.119,334.965c-10.82-16.42-18.499-34.55-17.227-58.371
		c1.698-31.733,21.651-59.304,49.417-71.006L48.91,141.594l-2.88,29.474c-1.092,11.166-0.842,22.127,0.742,32.576
		c3.239,21.481,11.951,40.217,25.887,55.781l-59.483-6.568l9.966,27.797c3.78,10.543,8.703,20.359,14.628,29.175
		c12.103,18.013,27.955,31.209,47.16,39.321L28.25,368.286L49.319,389.3c17.404,17.359,54.602,44.6,108.119,32.002
		c0.004,0-0.003,0.001,0.001,0c10.498-2.471,21.22-6.422,31.869-11.742c1.448-0.723,2.942-1.51,4.455-2.325
		C163.374,382.572,131.553,352.314,120.119,334.965z"/>
	<path style="fill:#BBDCE3;" d="M474.236,309.83c5.926-8.816,10.849-18.633,14.628-29.175l9.966-27.797l-59.483,6.567
		c13.935-15.562,22.647-34.299,25.887-55.781c1.583-10.45,1.834-21.409,0.742-32.576l-2.88-29.474l-103.4,63.995
		c27.767,11.704,47.718,39.273,49.417,71.006c1.277,23.822-6.381,41.876-17.224,58.371c-11.514,17.507-43.154,47.772-73.409,72.4
		c1.432,0.768,2.846,1.511,4.217,2.196c10.648,5.32,21.372,9.27,31.869,11.742c0.004,0.001-0.003,0,0.001,0
		c53.518,12.599,90.715-14.643,108.119-32.002l21.069-21.014l-56.681-19.136C446.281,341.039,462.133,327.842,474.236,309.83z"/>
</g>
<path d="M509.169,244.694c-2.815-3.566-7.269-5.438-11.785-4.931l-31.019,3.425c5.88-11.522,9.859-24.079,11.893-37.571
	c1.747-11.527,2.026-23.583,0.827-35.83l-2.88-29.474c-0.441-4.528-3.189-8.508-7.268-10.525c-4.075-2.018-8.907-1.792-12.776,0.605
	l-97.91,60.596c-8.998-2.985-18.453-4.561-28.105-4.561c-32.687,0-59.654,23.251-73.932,38.653
	c-13.925-15.49-40.421-38.653-74.363-38.653c-9.651,0-19.105,1.576-28.101,4.561l-97.908-60.596c-3.87-2.395-8.7-2.624-12.777-0.605
	c-4.077,2.017-6.825,5.998-7.268,10.525l-2.88,29.474c-1.198,12.249-0.92,24.304,0.826,35.821
	c2.035,13.495,6.017,26.055,11.896,37.578l-31.019-3.425c-4.523-0.503-8.971,1.365-11.787,4.931
	c-2.815,3.566-3.594,8.331-2.06,12.609l9.966,27.797c4.146,11.564,9.56,22.357,16.093,32.077
	c7.554,11.244,16.446,20.836,26.59,28.706l-29.391,9.923c-4.32,1.458-7.579,5.047-8.616,9.488s0.298,9.1,3.525,12.322l21.069,21.014
	c15.892,15.849,46.646,39.107,90.237,39.105c9.469,0,19.546-1.097,30.206-3.607c10.473-2.465,21.111-6.271,31.67-11.298
	c31.017,24.619,52.531,37.094,64.02,37.094c11.647,0,33.149-12.434,63.991-36.969c10.472,4.967,21.022,8.728,31.412,11.174
	c10.664,2.51,20.734,3.607,30.208,3.607c43.586-0.004,74.345-23.257,90.233-39.107l21.069-21.014
	c3.229-3.22,4.563-7.879,3.527-12.322c-1.035-4.44-4.295-8.029-8.614-9.488l-29.392-9.923c10.144-7.87,19.035-17.461,26.591-28.705
	c6.533-9.721,11.949-20.513,16.095-32.078l9.965-27.797C512.764,253.025,511.985,248.26,509.169,244.694z M154.419,408.478
	c-47.315,11.141-80.33-13.079-95.798-28.506l-6.019-6.005l36.542-12.337c5.185-1.751,8.749-6.525,8.95-11.993
	s-2.997-10.494-8.039-12.623c-16.815-7.102-30.727-18.72-41.351-34.534c-5.321-7.916-9.749-16.756-13.161-26.273l-2.847-7.941
	l38.518,4.254c5.425,0.601,10.662-2.212,13.161-7.066c2.498-4.856,1.743-10.747-1.9-14.815
	c-12.202-13.627-19.831-30.098-22.676-48.967c-1.421-9.372-1.641-19.238-0.656-29.32l0.823-8.421l66.868,41.384
	c-0.269,0.207-0.523,0.432-0.79,0.643c-0.757,0.597-1.507,1.207-2.25,1.829c-0.552,0.462-1.1,0.929-1.641,1.403
	c-0.631,0.555-1.253,1.125-1.871,1.698c-0.581,0.539-1.165,1.075-1.731,1.628c-0.136,0.133-0.278,0.256-0.414,0.389
	c-0.478,0.472-0.93,0.963-1.398,1.443c-0.503,0.519-1.016,1.028-1.508,1.557c-2.218,2.384-4.3,4.869-6.25,7.442
	c-0.049,0.065-0.095,0.132-0.144,0.196c-0.968,1.284-1.897,2.593-2.797,3.919c-0.05,0.074-0.097,0.149-0.148,0.221
	c-0.913,1.356-1.788,2.735-2.63,4.131c-0.011,0.018-0.021,0.036-0.032,0.054c-4.401,7.327-7.799,15.203-10.098,23.438
	c-0.009,0.032-0.017,0.065-0.026,0.096c-0.42,1.51-0.801,3.033-1.146,4.566c-0.066,0.291-0.129,0.584-0.192,0.877
	c-0.277,1.286-0.527,2.578-0.752,3.877c-0.071,0.414-0.146,0.826-0.212,1.241c-0.196,1.236-0.364,2.479-0.512,3.727
	c-0.05,0.422-0.112,0.842-0.157,1.265c-0.173,1.639-0.314,3.284-0.403,4.939c-1.632,30.602,10.28,52.504,19.383,66.321
	c0.042,0.063,0.09,0.13,0.132,0.194c0.327,0.493,0.665,0.992,1.018,1.499c0.175,0.253,0.361,0.51,0.541,0.765
	c0.227,0.317,0.453,0.636,0.689,0.96c0.233,0.321,0.473,0.646,0.715,0.971c0.183,0.246,0.37,0.494,0.559,0.743
	c0.294,0.389,0.592,0.779,0.897,1.174c0.103,0.133,0.209,0.267,0.314,0.4c6.885,8.823,16.598,19.089,27.228,29.39
	c0.457,0.443,0.914,0.885,1.375,1.331c0.246,0.237,0.494,0.473,0.74,0.71c0.59,0.566,1.183,1.132,1.778,1.699
	c0.157,0.149,0.315,0.299,0.472,0.448c0.706,0.669,1.416,1.34,2.129,2.01c0.076,0.071,0.151,0.142,0.228,0.213
	c4.121,3.868,8.355,7.736,12.626,11.543c0.117,0.104,0.233,0.207,0.349,0.311c0.644,0.574,1.29,1.146,1.935,1.717
	c0.389,0.344,0.776,0.685,1.165,1.026c0.35,0.308,0.7,0.617,1.05,0.922c0.599,0.526,1.196,1.046,1.792,1.565
	c0.092,0.08,0.186,0.162,0.278,0.242c0.73,0.635,1.456,1.265,2.179,1.889C164.302,405.805,159.327,407.323,154.419,408.478z
	 M202.1,397.039c-0.012-0.011-0.022-0.022-0.036-0.032c-1.804-1.464-3.595-2.936-5.379-4.412c-0.311-0.258-0.619-0.512-0.931-0.773
	c-0.568-0.473-1.134-0.946-1.699-1.419c-0.466-0.39-0.933-0.78-1.396-1.171c-0.275-0.232-0.549-0.464-0.825-0.696
	c-24.327-20.545-45.765-41.494-56.591-55.183c-0.016-0.02-0.03-0.04-0.046-0.059c-0.37-0.468-0.726-0.926-1.07-1.377
	c-0.112-0.148-0.219-0.29-0.328-0.436c-0.252-0.333-0.501-0.664-0.738-0.987c-0.219-0.298-0.424-0.588-0.63-0.876
	c-0.124-0.173-0.253-0.35-0.373-0.52c-0.329-0.472-0.644-0.933-0.939-1.381v0.001c-2.604-3.952-4.832-7.778-6.737-11.544
	c-1.483-2.934-2.761-5.832-3.841-8.718c-3.664-9.796-5.064-19.479-4.495-30.155c0.001-0.032,0.005-0.065,0.007-0.096
	c0.054-0.968,0.132-1.931,0.225-2.889c0.026-0.27,0.058-0.54,0.087-0.81c0.09-0.818,0.192-1.634,0.311-2.442
	c0.025-0.171,0.047-0.343,0.074-0.514c5.007-32.416,32.924-57.77,65.103-57.77c35.676,0,62.925,40.051,63.181,40.432
	c2.402,3.618,6.438,5.81,10.78,5.877c4.347,0.101,8.446-2.02,10.957-5.562c0.29-0.408,29.287-40.748,63.377-40.748
	c32.185,0,60.108,25.364,65.111,57.787c0.024,0.154,0.043,0.308,0.066,0.462c0.122,0.83,0.227,1.665,0.319,2.504
	c0.028,0.254,0.057,0.51,0.082,0.765c0.098,0.996,0.18,1.996,0.234,3.004c0.238,4.454,0.136,8.737-0.333,12.93
	c-1.406,12.58-6.102,24.349-14.744,37.495c-0.188,0.286-0.394,0.584-0.595,0.88c-0.105,0.155-0.204,0.304-0.314,0.462
	c-0.246,0.353-0.509,0.719-0.775,1.086c-0.078,0.108-0.151,0.213-0.231,0.323c-0.323,0.441-0.659,0.893-1.008,1.353
	c-0.02,0.028-0.04,0.054-0.061,0.08c-10.538,13.872-32.845,35.887-58.148,57.281c-0.022,0.02-0.046,0.04-0.069,0.058
	c-0.68,0.576-1.365,1.149-2.049,1.723c-0.329,0.275-0.657,0.551-0.987,0.826c-0.543,0.453-1.078,0.896-1.614,1.342
	c-0.601,0.499-1.201,0.999-1.805,1.495c-0.1,0.083-0.2,0.163-0.3,0.246c-0.918,0.756-1.839,1.51-2.763,2.262
	c-0.007,0.005-0.013,0.013-0.021,0.018c-29.895,24.357-48.469,35.056-53.967,36.337C250.684,432.171,232.092,421.402,202.1,397.039z
	 M476.463,276.207c-3.412,9.518-7.84,18.358-13.161,26.273c0,0,0,0,0,0.001c-10.625,15.813-24.538,27.431-41.352,34.533
	c-5.042,2.129-8.242,7.155-8.04,12.623c0.202,5.468,3.765,10.243,8.95,11.993l36.542,12.337l-6.02,6.005
	c-15.465,15.427-48.477,39.653-95.796,28.506c-4.833-1.137-9.73-2.627-14.657-4.457c0.012-0.011,0.022-0.02,0.034-0.03
	c0.628-0.544,1.258-1.093,1.89-1.645c0.263-0.229,0.526-0.46,0.789-0.69c0.445-0.39,0.891-0.78,1.337-1.174
	c0.494-0.435,0.988-0.871,1.482-1.308c0.24-0.213,0.481-0.424,0.721-0.639c5.082-4.508,10.139-9.124,15.033-13.742
	c0.012-0.011,0.024-0.022,0.034-0.033c0.779-0.735,1.553-1.47,2.324-2.204c0.1-0.095,0.199-0.19,0.299-0.285
	c0.677-0.647,1.35-1.294,2.021-1.939c0.162-0.157,0.325-0.312,0.487-0.469c0.588-0.568,1.17-1.134,1.751-1.702
	c0.227-0.221,0.454-0.443,0.681-0.664c0.319-0.312,0.634-0.624,0.95-0.935c1.082-1.064,2.154-2.128,3.212-3.189
	c0.003-0.003,0.005-0.005,0.008-0.008c0.669-0.671,1.332-1.341,1.991-2.009c0.009-0.009,0.018-0.018,0.028-0.028
	c7.712-7.832,14.639-15.466,19.939-22.278c0.136-0.174,0.273-0.349,0.406-0.522c0.286-0.372,0.565-0.74,0.842-1.107
	c0.211-0.279,0.419-0.557,0.623-0.833c0.227-0.306,0.451-0.61,0.669-0.912c0.261-0.358,0.511-0.711,0.76-1.063
	c0.161-0.228,0.325-0.458,0.482-0.684c0.407-0.586,0.801-1.166,1.174-1.732c1.233-1.876,2.486-3.848,3.732-5.922
	c8.094-13.473,15.861-31.216,15.795-54.834c-0.005-1.817-0.057-3.669-0.158-5.557c-0.088-1.651-0.229-3.293-0.402-4.93
	c-0.046-0.432-0.108-0.859-0.159-1.29c-0.148-1.24-0.314-2.475-0.508-3.704c-0.067-0.418-0.141-0.831-0.213-1.248
	c-0.224-1.298-0.474-2.589-0.751-3.873c-0.063-0.292-0.126-0.585-0.192-0.877c-0.345-1.535-0.727-3.058-1.147-4.57
	c-0.008-0.03-0.016-0.059-0.024-0.09c-2.299-8.235-5.696-16.11-10.098-23.439c-0.011-0.017-0.021-0.036-0.032-0.053
	c-0.839-1.395-1.713-2.772-2.624-4.125c-0.053-0.078-0.103-0.157-0.154-0.233c-0.893-1.319-1.818-2.619-2.778-3.896
	c-0.055-0.074-0.107-0.149-0.162-0.223c-1.012-1.335-2.051-2.649-3.135-3.935c-0.022-0.026-0.046-0.051-0.069-0.078
	c-0.981-1.161-1.993-2.299-3.034-3.416c-0.508-0.548-1.039-1.075-1.561-1.611c-0.453-0.465-0.892-0.942-1.356-1.399
	c-0.13-0.129-0.267-0.248-0.399-0.375c-0.581-0.566-1.178-1.116-1.773-1.667c-0.605-0.56-1.211-1.117-1.827-1.66
	c-0.552-0.485-1.112-0.96-1.676-1.432c-0.73-0.611-1.466-1.211-2.211-1.797c-0.274-0.216-0.534-0.447-0.81-0.659l66.869-41.384
	l0.823,8.422c0.985,10.081,0.765,19.945-0.657,29.329c-2.843,18.858-10.472,35.33-22.675,48.957
	c-3.643,4.068-4.397,9.961-1.898,14.815c2.499,4.855,7.73,7.678,13.159,7.066l38.518-4.254L476.463,276.207z"/>
<path d="M191.292,335.953h-0.013c-7.276,0-13.167,5.899-13.167,13.174c0,7.275,5.905,13.174,13.18,13.174
	c7.276,0,13.174-5.899,13.174-13.174C204.466,341.853,198.568,335.953,191.292,335.953z"/>
<path d="M167.656,305.477c-7.217-10.951-8.4-17.374-8.006-24.763c0.527-9.858,6.416-18.953,14.998-23.166
	c3.151-1.547,6.457-2.332,9.825-2.332c7.276,0,13.174-5.899,13.174-13.174c0-7.275-5.898-13.174-13.174-13.174
	c-7.426,0-14.637,1.69-21.435,5.026c-17.275,8.481-28.654,25.881-29.699,45.413c-0.771,14.44,2.798,26.221,12.314,40.665
	c1.352,2.051,3.438,4.737,6.205,7.982c2.606,3.058,6.308,4.629,10.033,4.629c3.021,0,6.059-1.034,8.538-3.147
	c5.538-4.72,6.201-13.036,1.482-18.573C169.022,307.475,167.923,305.884,167.656,305.477z"/>
<path d="M179.893,152.65c20.547,9.057,47.577,14.045,76.109,14.045c16.121,0,31.644-1.561,46.134-4.637
	c7.117-1.511,11.662-8.506,10.15-15.623c-1.512-7.117-8.502-11.663-15.623-10.15c-12.694,2.697-26.375,4.063-40.66,4.063
	c-52.269,0-86.948-18.634-86.948-30.959s34.679-30.959,86.948-30.959c40.531,0,70.284,11.024,81.79,21.95
	c5.276,5.011,13.617,4.794,18.625-0.482c5.01-5.276,4.794-13.615-0.482-18.625c-18.964-18.006-57.255-29.191-99.932-29.191
	c-28.533,0-55.562,4.988-76.109,14.045c-23.979,10.569-37.186,25.934-37.186,43.262S155.914,142.08,179.893,152.65z"/>
<path d="M345.993,129.084c-0.473-0.726-1.026-1.398-1.634-2.004c-0.606-0.606-1.278-1.159-2.002-1.634
	c-0.711-0.486-1.475-0.883-2.279-1.212c-0.79-0.329-1.619-0.592-2.462-0.764c-1.699-0.343-3.452-0.343-5.138,0
	c-0.843,0.173-1.673,0.435-2.477,0.764c-0.792,0.329-1.555,0.726-2.266,1.212c-0.726,0.474-1.398,1.028-2.004,1.634
	c-0.606,0.606-1.159,1.278-1.634,2.004c-0.487,0.711-0.883,1.475-1.212,2.266c-0.329,0.804-0.593,1.634-0.764,2.464
	c-0.171,0.855-0.249,1.726-0.249,2.582c0,0.855,0.079,1.726,0.249,2.569c0.171,0.843,0.435,1.673,0.764,2.464
	c0.329,0.802,0.739,1.566,1.212,2.278c0.474,0.725,1.028,1.396,1.634,2.004c0.606,0.606,1.278,1.159,2.004,1.632
	c0.711,0.474,1.474,0.883,2.266,1.212c0.804,0.329,1.634,0.58,2.477,0.751c0.843,0.171,1.713,0.263,2.569,0.263
	c0.855,0,1.726-0.092,2.569-0.263c0.843-0.171,1.673-0.422,2.462-0.751c0.804-0.329,1.568-0.738,2.279-1.212
	c0.725-0.473,1.396-1.026,2.002-1.632c0.607-0.607,1.161-1.279,1.634-2.004c0.474-0.711,0.883-1.475,1.212-2.278
	c0.329-0.792,0.593-1.62,0.751-2.464c0.171-0.844,0.263-1.714,0.263-2.569c0-0.856-0.092-1.727-0.263-2.582
	c-0.158-0.83-0.422-1.66-0.751-2.464C346.876,130.561,346.467,129.795,345.993,129.084z"/>
</svg>